<svg width="13" height="12" viewBox="0 0 13 12" fill="none" xmlns="http://www.w3.org/2000/svg">
<path d="M10.6682 7.99001L11.9153 8.61391C12.0753 8.6939 12.0753 8.92223 11.9153 9.00221L6.41213 11.7545C6.3518 11.7845 6.28535 11.8001 6.21798 11.8001C6.15061 11.8001 6.08416 11.7845 6.02383 11.7545L0.520675 9.00221C0.484725 8.98409 0.454512 8.95635 0.433402 8.92207C0.412293 8.88779 0.401115 8.84832 0.401115 8.80806C0.401115 8.7678 0.412293 8.72834 0.433402 8.69406C0.454512 8.65978 0.484725 8.63203 0.520675 8.61391L1.76848 7.99001L5.6348 9.92353C6.00201 10.1068 6.43468 10.1068 6.80117 9.92353L10.6675 7.98928L10.6682 7.99001ZM6.02383 0.645677C6.08416 0.615698 6.15061 0.600098 6.21798 0.600098C6.28535 0.600098 6.3518 0.615698 6.41213 0.645677L11.9153 3.39726C11.9512 3.41549 11.9814 3.44332 12.0025 3.47765C12.0235 3.51199 12.0347 3.55149 12.0347 3.59177C12.0347 3.63206 12.0235 3.67155 12.0025 3.70589C11.9814 3.74022 11.9512 3.76805 11.9153 3.78629L6.41213 6.53714C6.3518 6.56712 6.28535 6.58272 6.21798 6.58272C6.15061 6.58272 6.08416 6.56712 6.02383 6.53714L0.520675 3.78629C0.484534 3.76824 0.454137 3.74048 0.432891 3.70612C0.411645 3.67176 0.400391 3.63217 0.400391 3.59177C0.400391 3.55137 0.411645 3.51178 0.432891 3.47742C0.454137 3.44306 0.484534 3.4153 0.520675 3.39726L6.02383 0.645677Z" fill="white"/>
<path d="M10.6685 5.38184L11.9155 6.00574C12.0755 6.08573 12.0755 6.31406 11.9155 6.39404L6.41239 9.14562C6.35206 9.1756 6.2856 9.1912 6.21823 9.1912C6.15087 9.1912 6.08441 9.1756 6.02408 9.14562L0.520926 6.39404C0.484977 6.37592 0.454764 6.34818 0.433654 6.3139C0.412545 6.27962 0.401367 6.24015 0.401367 6.19989C0.401367 6.15963 0.412545 6.12017 0.433654 6.08589C0.454764 6.05161 0.484977 6.02386 0.520926 6.00574L1.76873 5.38184L5.63505 7.31536C6.00227 7.4986 6.43493 7.4986 6.80142 7.31536L10.6685 5.38184Z" fill="white"/>
</svg>
